<svg
    xmlns="http://www.w3.org/2000/svg"
    width="108"
    height="108"
    viewBox="0 0 108 108"
    fill="#fa7443">
    <g
        transform="matrix(1.4678884,0,0,1.4678884,20.52,20.52)">
        <path
            d="M22.8083,22.8083m-22.8083,0a22.8083,22.8083 0,1 1,45.6165 0a22.8083,22.8083 0,1 1,-45.6165 0"
            stroke-width="1.22048855"
            stroke="#00000000" />
        <path
            d="M13.6587,9.3553L31.9578,9.3553A2.4146,2.4146 0,0 1,34.3725 11.7699L34.3725,33.8466A2.4146,2.4146 0,0 1,31.9578 36.2612L13.6587,36.2612A2.4146,2.4146 0,0 1,11.2441 33.8466L11.2441,11.7699A2.4146,2.4146 0,0 1,13.6587 9.3553z"
            stroke-width="1.24059832"
            stroke="#00000000" />
        <path
            d="m14.2137,21.6633 l2.9981,-1.8507 2.9056,1.7952 -0.0185,-9.3459 -5.8667,-0.0174z"
            stroke-width="0.20727606"
            stroke="#00000000"
            stroke-linecap="butt"
            stroke-linejoin="miter" />
        <path
            d="m13.6389,32.902 l4.4344,-5.584 3.2519,3.8431 4.3687,-5.7483 5.7811,7.522z"
            stroke-width="0.26013672"
            stroke="#00000000"
            stroke-linecap="butt"
            stroke-linejoin="miter" />
    </g>
</svg>